<?xml version="1.0" encoding="utf-8"?>
<!-- Generator: Adobe Illustrator 27.5.0, SVG Export Plug-In . SVG Version: 6.00 Build 0)  -->
<svg version="1.1" id="Layer_1" xmlns="http://www.w3.org/2000/svg" xmlns:xlink="http://www.w3.org/1999/xlink" x="0px" y="0px"
	 viewBox="0 0 1300 1300" style="enable-background:new 0 0 1300 1300;" xml:space="preserve">
<radialGradient id="XMLID_00000075876409573864171760000016141335035767630270_" cx="662.4995" cy="512.5003" r="649.9999" gradientUnits="userSpaceOnUse">
	<stop  offset="0" style="stop-color:#FFFFFF"/>
	<stop  offset="1" style="stop-color:#E6E6E6"/>
</radialGradient>
<rect id="XMLID_4_" style="fill:url(#XMLID_00000075876409573864171760000016141335035767630270_);" width="1300" height="1300"/>
<g id="XMLID_1_">
	<g id="XMLID_3_">
		<path id="XMLID_172_" style="fill:#007B8D;" d="M541.609,277.409c3.021,4.854,8.389,8.101,14.514,8.101
			c9.43,0,17.102-7.672,17.102-17.102s-7.672-17.102-17.102-17.102c-8.703,0-15.894,6.54-16.953,14.961L426.24,287.914
			l-53.051,54.79c-2.3-1.152-4.885-1.817-7.627-1.817c-9.43,0-17.102,7.672-17.102,17.102c0,9.43,7.672,17.102,17.102,17.102
			c9.43,0,17.102-7.672,17.102-17.102c0-2.526-0.565-4.917-1.552-7.077l50.813-52.478L541.609,277.409z M556.124,262.708
			c3.143,0,5.701,2.557,5.701,5.701c0,3.143-2.557,5.701-5.701,5.701c-3.143,0-5.701-2.557-5.701-5.701
			C550.423,265.265,552.98,262.708,556.124,262.708z M365.562,363.689c-3.143,0-5.701-2.557-5.701-5.701
			c0-3.143,2.557-5.701,5.701-5.701c3.143,0,5.701,2.557,5.701,5.701C371.262,361.132,368.705,363.689,365.562,363.689z"/>
		<path id="XMLID_176_" style="fill:#009FDA;" d="M1022.762,511.358l-57.813-114.563c3.01-3.084,4.873-7.292,4.873-11.931
			c0-9.43-7.672-17.102-17.102-17.102c-9.43,0-17.102,7.672-17.102,17.102c0,9.43,7.672,17.102,17.102,17.102
			c0.679,0,1.345-0.051,2.003-0.128l54.997,108.986l-21.925,35.811c-1.325-0.331-2.703-0.525-4.13-0.525
			c-9.43,0-17.102,7.672-17.102,17.102c0,9.43,7.672,17.102,17.102,17.102c9.43,0,17.102-7.672,17.102-17.102
			c0-3.858-1.299-7.409-3.463-10.274L1022.762,511.358z M947.02,384.863c0-3.143,2.558-5.701,5.701-5.701s5.701,2.557,5.701,5.701
			c0,3.143-2.558,5.701-5.701,5.701S947.02,388.006,947.02,384.863z M983.667,568.91c-3.143,0-5.701-2.558-5.701-5.701
			c0-3.143,2.558-5.701,5.701-5.701c3.143,0,5.701,2.558,5.701,5.701C989.367,566.352,986.81,568.91,983.667,568.91z"/>
		<path id="XMLID_180_" style="fill:#62BB46;" d="M545.533,325.213c2.991,4.988,8.435,8.345,14.663,8.345
			c9.43,0,17.102-7.672,17.102-17.102c0-9.43-7.672-17.102-17.102-17.102c-8.606,0-15.728,6.396-16.91,14.681l-96.776,20.008
			l-40.475,43.417c-2.161-0.989-4.555-1.555-7.084-1.555c-9.43,0-17.102,7.672-17.102,17.102c0,9.43,7.672,17.102,17.102,17.102
			c9.43,0,17.102-7.672,17.102-17.102c0-2.742-0.665-5.326-1.816-7.625l38.137-40.909L545.533,325.213z M560.195,310.755
			c3.143,0,5.701,2.557,5.701,5.701c0,3.143-2.557,5.701-5.701,5.701c-3.143,0-5.701-2.557-5.701-5.701
			C554.495,313.313,557.052,310.755,560.195,310.755z M398.951,398.707c-3.143,0-5.701-2.557-5.701-5.701
			c0-3.143,2.557-5.701,5.701-5.701c3.143,0,5.701,2.557,5.701,5.701C404.651,396.15,402.094,398.707,398.951,398.707z"/>
		<path id="XMLID_184_" style="fill:#ED1164;" d="M408.85,453.888l-88.602-99.576l49.38-55.82c2.226,1.063,4.707,1.676,7.334,1.676
			c9.43,0,17.102-7.672,17.102-17.102c0-9.43-7.672-17.102-17.102-17.102c-9.43,0-17.102,7.672-17.102,17.102
			c0,2.635,0.616,5.122,1.685,7.354l-56.539,63.915l88.93,99.945l-59.79,74.738c-1.65-0.532-3.407-0.826-5.232-0.826
			c-9.43,0-17.102,7.672-17.102,17.102c0,9.43,7.672,17.102,17.102,17.102c9.43,0,17.102-7.672,17.102-17.102
			c0-3.453-1.037-6.666-2.804-9.357L408.85,453.888z M376.963,277.366c3.143,0,5.701,2.557,5.701,5.701
			c0,3.143-2.557,5.701-5.701,5.701c-3.143,0-5.701-2.557-5.701-5.701C371.262,279.924,373.819,277.366,376.963,277.366z
			 M328.915,550.994c-3.143,0-5.701-2.558-5.701-5.701c0-3.143,2.557-5.701,5.701-5.701c3.143,0,5.701,2.558,5.701,5.701
			C334.616,548.436,332.058,550.994,328.915,550.994z"/>
		<path id="XMLID_188_" style="fill:#F37021;" d="M474.958,462.025l-25.322-27.186c1.423-2.494,2.248-5.372,2.248-8.443
			c0-9.43-7.672-17.102-17.102-17.102c-9.43,0-17.102,7.672-17.102,17.102c0,9.43,7.672,17.102,17.102,17.102
			c2.199,0,4.296-0.432,6.228-1.191l18.745,20.125l-71.464,85.463c-1.766-0.618-3.655-0.971-5.629-0.971
			c-9.43,0-17.102,7.672-17.102,17.102c0,9.43,7.672,17.102,17.102,17.102c9.43,0,17.102-7.672,17.102-17.102
			c0-3.3-0.955-6.374-2.581-8.99L474.958,462.025z M434.783,432.096c-3.143,0-5.701-2.557-5.701-5.701
			c0-3.143,2.557-5.701,5.701-5.701c3.143,0,5.701,2.557,5.701,5.701C440.483,429.539,437.926,432.096,434.783,432.096z
			 M382.663,569.724c-3.143,0-5.701-2.558-5.701-5.701c0-3.143,2.557-5.701,5.701-5.701c3.143,0,5.701,2.558,5.701,5.701
			C388.364,567.167,385.807,569.724,382.663,569.724z"/>
		<path id="XMLID_192_" style="fill:#3DBB95;" d="M722.03,598.524c3.121,3.317,7.537,5.403,12.44,5.403
			c9.43,0,17.102-7.672,17.102-17.102c0-9.43-7.672-17.102-17.102-17.102c-9.43,0-17.102,7.672-17.102,17.102
			c0,0.423,0.033,0.838,0.064,1.254l-166.27,64.601l-104.13-99.021c0.506-1.614,0.781-3.33,0.781-5.109
			c0-9.43-7.672-17.102-17.102-17.102s-17.102,7.672-17.102,17.102c0,9.43,7.672,17.102,17.102,17.102
			c3.474,0,6.706-1.048,9.407-2.835l108.43,103.111L722.03,598.524z M734.47,581.125c3.143,0,5.701,2.558,5.701,5.701
			c0,3.143-2.558,5.701-5.701,5.701s-5.701-2.558-5.701-5.701C728.77,583.683,731.327,581.125,734.47,581.125z M425.01,548.551
			c0-3.143,2.557-5.701,5.701-5.701c3.143,0,5.701,2.558,5.701,5.701c0,3.143-2.557,5.701-5.701,5.701
			C427.568,554.251,425.01,551.694,425.01,548.551z"/>
		<path id="XMLID_196_" style="fill:#F04E3E;" d="M833.823,773.316c-3.062,0-5.932,0.82-8.421,2.235l-18.957-19.227
			c1.356-2.449,2.133-5.261,2.133-8.254c0-9.43-7.672-17.102-17.102-17.102c-9.43,0-17.102,7.672-17.102,17.102
			c0,9.43,7.672,17.102,17.102,17.102c2.276,0,4.445-0.456,6.433-1.266l20.003,20.287c-0.759,1.932-1.19,4.027-1.19,6.224
			c0,9.43,7.672,17.102,17.102,17.102c9.43,0,17.102-7.672,17.102-17.102C850.925,780.988,843.253,773.316,833.823,773.316z
			 M785.775,748.071c0-3.143,2.558-5.701,5.701-5.701c3.143,0,5.701,2.558,5.701,5.701c0,3.143-2.558,5.701-5.701,5.701
			C788.333,753.771,785.775,751.214,785.775,748.071z M833.823,796.119c-3.143,0-5.701-2.558-5.701-5.701s2.558-5.701,5.701-5.701
			c3.143,0,5.701,2.558,5.701,5.701S836.966,796.119,833.823,796.119z"/>
		<path id="XMLID_200_" style="fill:#F04E3E;" d="M652.219,329.486c-9.43,0-17.102,7.672-17.102,17.102
			c0,9.43,7.672,17.102,17.102,17.102c2.93,0,5.688-0.742,8.101-2.046l38.583,33.667l107.613-32.818
			c3.062,4.64,8.315,7.712,14.277,7.712c9.43,0,17.102-7.672,17.102-17.102c0-9.43-7.672-17.102-17.102-17.102
			c-8.858,0-16.162,6.77-17.016,15.407l-102.147,31.151l-33.643-29.356c0.857-2.036,1.333-4.271,1.333-6.615
			C669.321,337.158,661.649,329.486,652.219,329.486z M820.793,347.402c3.143,0,5.701,2.557,5.701,5.701
			c0,3.143-2.558,5.701-5.701,5.701c-2.485,0-4.598-1.601-5.377-3.824l-0.129-0.423c-0.123-0.465-0.195-0.951-0.195-1.454
			C815.093,349.959,817.65,347.402,820.793,347.402z M652.219,352.288c-3.143,0-5.701-2.557-5.701-5.701
			c0-3.143,2.557-5.701,5.701-5.701c3.143,0,5.701,2.557,5.701,5.701C657.92,349.731,655.362,352.288,652.219,352.288z"/>
		<path id="XMLID_204_" style="fill:#007DC5;" d="M950.278,609.628c-9.43,0-17.102,7.672-17.102,17.102
			c0,2.13,0.409,4.161,1.123,6.043l-88.85,74.697l-94.925,5.447l-60.526-60.031c1.351-2.446,2.125-5.253,2.125-8.24
			c0-9.43-7.672-17.102-17.102-17.102c-9.43,0-17.102,7.672-17.102,17.102c0,9.43,7.672,17.102,17.102,17.102
			c2.279,0,4.451-0.457,6.442-1.27l64.641,64.112l103.781-5.954l91.777-77.157c2.534,1.486,5.472,2.353,8.615,2.353
			c9.43,0,17.102-7.672,17.102-17.102C967.379,617.3,959.707,609.628,950.278,609.628z M669.321,644.646
			c0-3.143,2.557-5.701,5.701-5.701c3.143,0,5.701,2.558,5.701,5.701c0,3.143-2.558,5.701-5.701,5.701
			C671.878,650.347,669.321,647.789,669.321,644.646z M950.278,632.431c-3.143,0-5.701-2.558-5.701-5.701
			c0-3.143,2.558-5.701,5.701-5.701c3.143,0,5.701,2.558,5.701,5.701C955.978,629.873,953.421,632.431,950.278,632.431z"/>
		<path id="XMLID_208_" style="fill:#ED0C6E;" d="M941.32,598.227c9.43,0,17.102-7.672,17.102-17.102
			c0-9.43-7.672-17.102-17.102-17.102c-5.627,0-10.613,2.744-13.732,6.951l-88.647-25.932l-40.481,12.437
			c-3.132-3.472-7.651-5.671-12.684-5.671c-9.43,0-17.102,7.672-17.102,17.102c0,9.43,7.672,17.102,17.102,17.102
			c9.43,0,17.102-7.672,17.102-17.102c0-0.286-0.029-0.565-0.043-0.847l36.186-11.118l85.236,24.935
			C924.655,590.959,932.145,598.227,941.32,598.227z M785.775,574.611c-3.143,0-5.701-2.558-5.701-5.701s2.558-5.701,5.701-5.701
			c3.143,0,5.701,2.558,5.701,5.701S788.918,574.611,785.775,574.611z M941.32,575.425c3.143,0,5.701,2.558,5.701,5.701
			c0,3.143-2.558,5.701-5.701,5.701c-3.143,0-5.701-2.558-5.701-5.701C935.619,577.983,938.177,575.425,941.32,575.425z"/>
		<path id="XMLID_212_" style="fill:#EEDC00;" d="M800.434,799.376c-2.654,0-5.159,0.625-7.403,1.709L651.373,663.349
			c1.053-2.218,1.66-4.688,1.66-7.302c0-9.43-7.672-17.102-17.102-17.102c-9.43,0-17.102,7.672-17.102,17.102
			c0,9.43,7.672,17.102,17.102,17.102c2.655,0,5.162-0.626,7.406-1.711l141.656,137.734c-1.054,2.219-1.662,4.69-1.662,7.305
			c0,9.43,7.672,17.102,17.102,17.102c9.43,0,17.102-7.672,17.102-17.102C817.536,807.048,809.864,799.376,800.434,799.376z
			 M635.932,661.748c-3.143,0-5.701-2.558-5.701-5.701c0-3.143,2.557-5.701,5.701-5.701c3.143,0,5.701,2.558,5.701,5.701
			C641.632,659.19,639.075,661.748,635.932,661.748z M800.434,822.178c-3.143,0-5.701-2.558-5.701-5.701
			c0-3.143,2.558-5.701,5.701-5.701c3.143,0,5.7,2.558,5.7,5.701C806.134,819.621,803.577,822.178,800.434,822.178z"/>
		<path id="XMLID_216_" style="fill:#00AAB5;" d="M479.573,423.953c9.43,0,17.102-7.672,17.102-17.102
			c0-0.365-0.032-0.721-0.055-1.08l41.021-16.547l115.274,132.029c-1.469,2.523-2.325,5.445-2.325,8.568
			c0,9.43,7.672,17.102,17.102,17.102c9.43,0,17.102-7.672,17.102-17.102c0-9.43-7.672-17.102-17.102-17.102
			c-2.149,0-4.199,0.415-6.095,1.142L540.896,375.616l-48.761,19.67c-3.127-3.394-7.594-5.537-12.562-5.537
			c-9.43,0-17.102,7.672-17.102,17.102C462.471,416.281,470.143,423.953,479.573,423.953z M667.692,524.12
			c3.143,0,5.701,2.557,5.701,5.701c0,3.143-2.557,5.701-5.701,5.701c-3.143,0-5.701-2.557-5.701-5.701
			C661.991,526.677,664.549,524.12,667.692,524.12z M479.573,401.15c3.143,0,5.701,2.557,5.701,5.701
			c0,3.143-2.557,5.701-5.701,5.701c-3.143,0-5.701-2.557-5.701-5.701C473.872,403.707,476.43,401.15,479.573,401.15z"/>
		<path id="XMLID_220_" style="fill:#D7DF23;" d="M596.028,564.838c9.43,0,17.102-7.672,17.102-17.102
			c0-9.43-7.672-17.102-17.102-17.102c-3.027,0-5.868,0.798-8.337,2.184l-65.744-68.037l-0.235,0.227
			c1.165-2.309,1.836-4.909,1.836-7.667c0-9.43-7.672-17.102-17.102-17.102c-9.43,0-17.102,7.672-17.102,17.102
			c0,9.43,7.672,17.102,17.102,17.102c2.635,0,5.123-0.616,7.354-1.685l66.348,68.663c-0.781,1.957-1.223,4.084-1.223,6.316
			C578.926,557.166,586.598,564.838,596.028,564.838z M506.447,463.042c-3.143,0-5.701-2.557-5.701-5.701
			c0-3.143,2.557-5.701,5.701-5.701c3.143,0,5.701,2.557,5.701,5.701C512.148,460.485,509.591,463.042,506.447,463.042z
			 M596.028,542.036c3.143,0,5.701,2.558,5.701,5.701c0,3.143-2.557,5.701-5.701,5.701c-3.143,0-5.701-2.558-5.701-5.701
			C590.327,544.594,592.884,542.036,596.028,542.036z"/>
		<path id="XMLID_224_" style="fill:#2E3192;" d="M465.729,521.677c0,9.43,7.672,17.102,17.102,17.102
			c3.049,0,5.908-0.811,8.389-2.215l71.563,74.031l197.297-75.173c3.132,4.017,8.003,6.615,13.48,6.615
			c9.43,0,17.102-7.672,17.102-17.102c0-9.43-7.672-17.102-17.102-17.102c-9.315,0-16.9,7.489-17.084,16.761l-190.723,72.669
			l-67.02-69.331c0.766-1.94,1.201-4.045,1.201-6.254c0-9.43-7.672-17.102-17.102-17.102
			C473.4,504.575,465.729,512.247,465.729,521.677z M773.56,519.234c3.143,0,5.701,2.557,5.701,5.701
			c0,3.143-2.558,5.701-5.701,5.701c-3.143,0-5.701-2.557-5.701-5.701C767.859,521.791,770.417,519.234,773.56,519.234z
			 M482.83,515.976c3.143,0,5.701,2.557,5.701,5.701c0,3.143-2.557,5.701-5.701,5.701c-3.143,0-5.7-2.557-5.7-5.701
			C477.13,518.533,479.687,515.976,482.83,515.976z"/>
		<path id="XMLID_228_" style="fill:#00AAB5;" d="M332.172,494.802c0-9.43-7.672-17.102-17.102-17.102
			c-2.119,0-4.141,0.405-6.016,1.113l-19.672-22.384l7.284-43.185c8.511-0.974,15.147-8.213,15.147-16.981
			c0-9.43-7.672-17.102-17.102-17.102c-9.43,0-17.102,7.672-17.102,17.102c0,6.053,3.17,11.369,7.929,14.409l-8.3,49.209
			l23.098,26.282c-1.494,2.539-2.367,5.485-2.367,8.638c0,9.43,7.672,17.102,17.102,17.102
			C324.501,511.904,332.172,504.233,332.172,494.802z M294.712,390.564c3.143,0,5.701,2.557,5.701,5.701
			c0,3.143-2.557,5.701-5.701,5.701c-3.143,0-5.701-2.557-5.701-5.701C289.011,393.121,291.568,390.564,294.712,390.564z
			 M309.37,494.802c0-3.143,2.557-5.701,5.701-5.701c3.143,0,5.701,2.557,5.701,5.701c0,3.143-2.557,5.701-5.701,5.701
			C311.927,500.503,309.37,497.946,309.37,494.802z"/>
		<path id="XMLID_232_" style="fill:#27B4E9;" d="M596.028,336.815c-9.43,0-17.102,7.672-17.102,17.102
			c0,9.43,7.672,17.102,17.102,17.102c1,0,1.974-0.104,2.927-0.269l66.467,75.54l34.103-4.497c3.007,4.919,8.412,8.22,14.587,8.22
			c9.43,0,17.102-7.672,17.102-17.102c0-9.43-7.672-17.102-17.102-17.102c-8.645,0-15.793,6.453-16.927,14.792l-27.222,3.59
			l-60.907-69.221c2.535-2.984,4.074-6.839,4.074-11.053C613.129,344.487,605.458,336.815,596.028,336.815z M714.111,427.21
			c3.143,0,5.701,2.557,5.701,5.701c0,3.143-2.558,5.701-5.701,5.701c-3.143,0-5.701-2.557-5.701-5.701
			C708.41,429.767,710.968,427.21,714.111,427.21z M590.327,353.917c0-3.143,2.557-5.701,5.701-5.701
			c3.143,0,5.701,2.557,5.701,5.701c0,3.143-2.557,5.701-5.701,5.701C592.884,359.617,590.327,357.06,590.327,353.917z"/>
		<path id="XMLID_236_" style="fill:#0077AE;" d="M735.284,235.019c1.009,0,1.992-0.105,2.954-0.273l17.004,38.363l-125.384,39.3
			l-18.508-43.294c3.109-3.098,5.037-7.382,5.037-12.107c0-9.43-7.672-17.102-17.102-17.102c-9.43,0-17.102,7.672-17.102,17.102
			c0,9.43,7.672,17.102,17.102,17.102c0.595,0,1.183-0.031,1.762-0.091l22.381,52.354l147.415-46.204l-22.64-51.077
			c2.599-3,4.184-6.902,4.184-11.173c0-9.43-7.672-17.102-17.102-17.102c-9.43,0-17.102,7.672-17.102,17.102
			C718.183,227.348,725.855,235.019,735.284,235.019z M593.585,257.007c0-3.143,2.557-5.701,5.701-5.701
			c3.143,0,5.701,2.557,5.701,5.701c0,3.143-2.557,5.701-5.701,5.701C596.142,262.708,593.585,260.151,593.585,257.007z
			 M735.284,212.217c3.143,0,5.701,2.557,5.701,5.701c0,3.143-2.558,5.701-5.701,5.701c-3.143,0-5.701-2.557-5.701-5.701
			C729.584,214.774,732.142,212.217,735.284,212.217z"/>
		<path id="XMLID_240_" style="fill:#F58220;" d="M803.691,254.564c0.347,0,0.687-0.032,1.029-0.052l16.707,44.337l-92.641,26.787
			c-2.988-5-8.439-8.366-14.675-8.366c-9.43,0-17.102,7.672-17.102,17.102c0,9.43,7.672,17.102,17.102,17.102
			c8.582,0,15.687-6.361,16.899-14.612l105.436-30.488l-21.222-56.321c3.413-3.129,5.569-7.607,5.569-12.591
			c0-9.43-7.672-17.102-17.102-17.102c-9.43,0-17.102,7.672-17.102,17.102C786.59,246.892,794.262,254.564,803.691,254.564z
			 M714.111,340.073c-3.143,0-5.701-2.557-5.701-5.701c0-3.143,2.558-5.701,5.701-5.701c3.143,0,5.701,2.557,5.701,5.701
			C719.812,337.515,717.254,340.073,714.111,340.073z M803.691,231.762c3.143,0,5.701,2.557,5.701,5.701
			c0,3.143-2.558,5.701-5.701,5.701s-5.701-2.557-5.701-5.701C797.991,234.319,800.548,231.762,803.691,231.762z"/>
		<path id="XMLID_244_" style="fill:#8DC63F;" d="M853.368,284.696c2.759,0,5.358-0.672,7.668-1.837l62.543,59.068l-20.133,80.531
			c-8.469,1.014-15.06,8.23-15.06,16.968c0,9.43,7.672,17.102,17.102,17.102c9.43,0,17.102-7.672,17.102-17.102
			c0-6.09-3.21-11.433-8.017-14.463l21.686-86.743l-67.323-63.583c0.977-2.151,1.535-4.53,1.535-7.042
			c0-9.43-7.672-17.102-17.102-17.102c-9.43,0-17.102,7.672-17.102,17.102C836.266,277.024,843.938,284.696,853.368,284.696z
			 M905.487,445.126c-3.143,0-5.701-2.557-5.701-5.701c0-3.143,2.558-5.701,5.701-5.701c3.143,0,5.701,2.557,5.701,5.701
			C911.188,442.569,908.63,445.126,905.487,445.126z M853.368,261.893c3.143,0,5.701,2.557,5.701,5.701
			c0,3.143-2.558,5.701-5.701,5.701c-3.143,0-5.701-2.557-5.701-5.701C847.667,264.451,850.225,261.893,853.368,261.893z"/>
		<path id="XMLID_248_" style="fill:#92278F;" d="M967.379,506.204c0-9.43-7.672-17.102-17.102-17.102
			c-4.852,0-9.229,2.041-12.344,5.298l-101.938-42.724l33.728-102.649c9.398-0.037,17.033-7.691,17.033-17.098
			c0-9.43-7.672-17.102-17.102-17.102c-9.43,0-17.102,7.672-17.102,17.102c0,5.384,2.507,10.188,6.409,13.326l-37.084,112.867
			l111.369,46.677c-0.038,0.465-0.071,0.931-0.071,1.406c0,9.43,7.672,17.102,17.102,17.102
			C959.707,523.305,967.379,515.634,967.379,506.204z M869.655,326.228c3.143,0,5.701,2.557,5.701,5.701
			c0,3.143-2.558,5.701-5.701,5.701c-3.143,0-5.701-2.557-5.701-5.701C863.955,328.786,866.512,326.228,869.655,326.228z
			 M950.278,511.904c-3.143,0-5.701-2.557-5.701-5.701c0-3.143,2.558-5.701,5.701-5.701c3.143,0,5.701,2.557,5.701,5.701
			C955.978,509.347,953.421,511.904,950.278,511.904z"/>
		<path id="XMLID_252_" style="fill:#CBDB2A;" d="M895.715,544.479c9.43,0,17.102-7.672,17.102-17.102
			c0-9.43-7.672-17.102-17.102-17.102c-5.145,0-9.755,2.294-12.893,5.901l-118.808-50.009l14.214-37.38
			c0.344,0.021,0.684,0.052,1.033,0.052c9.43,0,17.102-7.672,17.102-17.102c0-9.43-7.672-17.102-17.102-17.102
			c-9.43,0-17.102,7.672-17.102,17.102c0,4.983,2.155,9.461,5.567,12.59l-18.282,48.078l129.199,54.383
			c-0.007,0.198-0.03,0.391-0.03,0.59C878.613,536.807,886.285,544.479,895.715,544.479z M779.26,406.036
			c3.143,0,5.701,2.557,5.701,5.701c0,3.143-2.558,5.701-5.701,5.701c-3.143,0-5.701-2.557-5.701-5.701
			C773.56,408.594,776.117,406.036,779.26,406.036z M895.715,521.677c3.143,0,5.701,2.557,5.701,5.701
			c0,3.143-2.558,5.701-5.701,5.701c-3.143,0-5.701-2.557-5.701-5.701C890.014,524.234,892.572,521.677,895.715,521.677z"/>
		<path id="XMLID_256_" style="fill:#6F60AA;" d="M425.01,273.294c8.717,0,15.917-6.559,16.959-14.998l203.126-35.392l24.263,23.827
			c-2.555,2.989-4.109,6.859-4.109,11.091c0,9.43,7.672,17.102,17.102,17.102c9.43,0,17.102-7.672,17.102-17.102
			c0-9.43-7.672-17.102-17.102-17.102c-0.892,0-1.761,0.089-2.616,0.222l-30.829-30.275l-209.405,36.486
			c-3.025-4.832-8.381-8.062-14.491-8.062c-9.43,0-17.102,7.672-17.102,17.102C407.909,265.623,415.58,273.294,425.01,273.294z
			 M688.051,257.822c0,3.143-2.558,5.701-5.701,5.701c-3.143,0-5.701-2.557-5.701-5.701c0-3.143,2.558-5.701,5.701-5.701
			C685.494,252.121,688.051,254.678,688.051,257.822z M425.01,250.492c3.143,0,5.701,2.557,5.701,5.701
			c0,3.143-2.557,5.701-5.701,5.701c-3.143,0-5.701-2.557-5.701-5.701C419.31,253.049,421.867,250.492,425.01,250.492z"/>
		<path id="XMLID_260_" style="fill:#CBDB2A;" d="M827.851,654.291l-64.216,7.841c-3.121-4.177-8.089-6.899-13.692-6.899
			c-9.43,0-17.102,7.672-17.102,17.102c0,9.43,7.672,17.102,17.102,17.102c9.135,0,16.599-7.206,17.057-16.23l61.899-7.558
			c2.716,5.86,8.639,9.943,15.51,9.943c9.43,0,17.102-7.672,17.102-17.102c0-9.43-7.672-17.102-17.102-17.102
			C836.431,641.389,829.731,646.889,827.851,654.291z M749.943,678.035c-3.143,0-5.701-2.558-5.701-5.701
			c0-3.143,2.558-5.701,5.701-5.701c3.143,0,5.701,2.558,5.701,5.701C755.644,675.478,753.086,678.035,749.943,678.035z
			 M850.11,658.49c0,3.143-2.558,5.701-5.701,5.701c-3.143,0-5.701-2.558-5.701-5.701c0-3.143,2.558-5.701,5.701-5.701
			C847.553,652.79,850.11,655.347,850.11,658.49z"/>
		<path id="XMLID_264_" style="fill:#F47A5C;" d="M887.571,658.49c9.43,0,17.102-7.672,17.102-17.102
			c0-9.43-7.672-17.102-17.102-17.102c-3.31,0-6.393,0.961-9.014,2.596l-35.108-29.132L731.222,623.02
			c-3.139-3.703-7.816-6.063-13.04-6.063c-9.43,0-17.102,7.672-17.102,17.102c0,9.43,7.672,17.102,17.102,17.102
			c9.43,0,17.102-7.672,17.102-17.102c0-0.089-0.012-0.175-0.013-0.264l105.213-23.691l30.948,25.68
			c-0.613,1.759-0.962,3.639-0.962,5.604C870.47,650.818,878.142,658.49,887.571,658.49z M718.183,639.76
			c-3.143,0-5.701-2.558-5.701-5.701c0-3.143,2.558-5.701,5.701-5.701c3.143,0,5.701,2.558,5.701,5.701
			C723.883,637.202,721.326,639.76,718.183,639.76z M893.272,641.389c0,3.143-2.558,5.701-5.701,5.701
			c-3.143,0-5.701-2.558-5.701-5.701c0-3.143,2.558-5.701,5.701-5.701C890.714,635.688,893.272,638.246,893.272,641.389z"/>
	</g>
	<g id="XMLID_43_">
		<path id="XMLID_44_" style="fill:#1A1A1A;" d="M180.167,909.993h33.324c26.853,0,45.408,18.431,45.408,42.477v0.244
			c0,24.047-18.554,42.723-45.408,42.723h-33.324V909.993z M213.49,978.471c15.38,0,25.755-10.376,25.755-25.511v-0.245
			c0-15.135-10.375-25.755-25.755-25.755h-14.526v51.511H213.49z"/>
		<path id="XMLID_47_" style="fill:#1A1A1A;" d="M273.426,909.993h18.798v85.444h-18.798V909.993z"/>
		<path id="XMLID_49_" style="fill:#1A1A1A;" d="M306.751,952.959v-0.245c0-24.29,18.919-44.186,44.797-44.186
			c15.381,0,24.657,4.15,33.568,11.718l-11.84,14.282c-6.591-5.494-12.451-8.667-22.337-8.667c-13.671,0-24.535,12.084-24.535,26.61
			v0.244c0,15.624,10.741,27.099,25.877,27.099c6.836,0,12.939-1.709,17.699-5.127V962.48h-18.92v-16.234h37.107v37.107
			c-8.788,7.446-20.872,13.549-36.497,13.549C325.06,996.902,306.751,978.226,306.751,952.959z"/>
		<path id="XMLID_51_" style="fill:#1A1A1A;" d="M404.038,909.993h18.798v85.444h-18.798V909.993z"/>
		<path id="XMLID_53_" style="fill:#1A1A1A;" d="M461.043,927.326h-25.999v-17.333h70.797v17.333h-26v68.111h-18.798V927.326z"/>
		<path id="XMLID_55_" style="fill:#1A1A1A;" d="M535.505,909.382h17.333l36.618,86.055h-19.652l-7.812-19.164h-36.13l-7.812,19.164
			h-19.164L535.505,909.382z M555.279,959.673l-11.352-27.708l-11.352,27.708H555.279z"/>
		<path id="XMLID_58_" style="fill:#1A1A1A;" d="M599.59,909.993h18.798v68.355h42.6v17.089H599.59V909.993z"/>
		<path id="XMLID_60_" style="fill:#1A1A1A;" d="M661.599,1000.808h73.727v14.159h-73.727V1000.808z"/>
		<path id="XMLID_62_" style="fill:#1A1A1A;" d="M742.285,909.993h39.67c9.766,0,17.455,2.685,22.338,7.567
			c3.907,3.906,5.86,8.667,5.86,14.525v0.245c0,9.643-5.127,15.013-11.229,18.431c9.887,3.784,15.99,9.521,15.99,20.995v0.244
			c0,15.624-12.696,23.436-31.981,23.436h-40.648V909.993z M777.928,944.536c8.299,0,13.549-2.685,13.549-9.032v-0.245
			c0-5.615-4.395-8.788-12.329-8.788h-18.553v18.065H777.928z M782.933,978.958c8.299,0,13.304-2.928,13.304-9.276v-0.245
			c0-5.737-4.272-9.277-13.915-9.277h-21.726v18.798H782.933z"/>
		<path id="XMLID_66_" style="fill:#1A1A1A;" d="M827.364,909.993h39.06c10.865,0,19.286,3.051,24.901,8.666
			c4.761,4.761,7.323,11.474,7.323,19.53v0.245c0,13.793-7.446,22.459-18.309,26.487l20.872,30.516h-21.971l-18.309-27.342h-14.771
			v27.342h-18.798V909.993z M865.204,951.495c9.154,0,14.403-4.882,14.403-12.084v-0.245c0-8.056-5.615-12.205-14.769-12.205
			h-18.677v24.535H865.204z"/>
		<path id="XMLID_69_" style="fill:#1A1A1A;" d="M941.863,909.382h17.333l36.619,86.055h-19.653l-7.812-19.164h-36.13l-7.812,19.164
			h-19.164L941.863,909.382z M961.637,959.673l-11.352-27.708l-11.352,27.708H961.637z"/>
		<path id="XMLID_72_" style="fill:#1A1A1A;" d="M1006.802,909.993h18.798v85.444h-18.798V909.993z"/>
		<path id="XMLID_74_" style="fill:#1A1A1A;" d="M1043.91,909.993h17.333l40.038,52.608v-52.608h18.553v85.444h-15.99
			l-41.379-54.318v54.318h-18.554V909.993z"/>
	</g>
	<g id="XMLID_5_">
		<path id="XMLID_6_" style="fill:#999999;" d="M209.021,1079.338v8.026h-3.575v-53.265h3.575v24.371
			c3.211-4.889,7.953-9.194,15.323-9.194c8.975,0,18.096,7.224,18.096,19.336v0.145c0,12.113-9.121,19.482-18.096,19.482
			C216.902,1088.239,212.086,1084.008,209.021,1079.338z M238.572,1068.904v-0.147c0-9.777-6.786-16.052-14.593-16.052
			c-7.734,0-15.177,6.494-15.177,15.979v0.145c0,9.559,7.443,15.98,15.177,15.98C232.078,1084.81,238.572,1078.899,238.572,1068.904
			z"/>
		<path id="XMLID_9_" style="fill:#999999;" d="M274.759,1072.917v-22.766h3.575v22.109c0,7.661,4.305,12.696,11.82,12.696
			c7.297,0,12.915-5.545,12.915-13.28v-21.525h3.576v37.214h-3.576v-6.931c-2.48,4.378-6.64,7.806-13.425,7.806
			C280.231,1088.239,274.759,1081.819,274.759,1072.917z"/>
		<path id="XMLID_11_" style="fill:#999999;" d="M338.891,1082.694l2.116-2.846c4.086,3.138,8.61,4.889,13.353,4.889
			c5.035,0,8.975-2.773,8.975-7.078v-0.145c0-4.379-4.67-5.984-9.851-7.443c-6.056-1.751-12.769-3.575-12.769-10.216v-0.145
			c0-5.984,5.035-10.289,12.258-10.289c4.451,0,9.486,1.606,13.207,4.087l-1.898,2.991c-3.429-2.262-7.516-3.721-11.455-3.721
			c-5.108,0-8.465,2.772-8.465,6.494v0.145c0,4.16,5.035,5.692,10.362,7.224c5.983,1.679,12.258,3.868,12.258,10.434v0.147
			c0,6.639-5.691,10.872-12.842,10.872C348.742,1088.093,342.832,1085.904,338.891,1082.694z"/>
		<path id="XMLID_13_" style="fill:#999999;" d="M400.325,1035.558h4.451v4.888h-4.451V1035.558z M400.763,1050.15h3.575v37.214
			h-3.575V1050.15z"/>
		<path id="XMLID_16_" style="fill:#999999;" d="M440.308,1050.15h3.575v6.933c2.48-4.378,6.64-7.808,13.425-7.808
			c9.413,0,14.885,6.421,14.885,15.323v22.765h-3.575v-22.109c0-7.661-4.305-12.696-11.82-12.696
			c-7.297,0-12.915,5.546-12.915,13.28v21.525h-3.575V1050.15z"/>
		<path id="XMLID_18_" style="fill:#999999;" d="M504.368,1068.829v-0.145c0-10.799,7.588-19.409,17.658-19.409
			c10.434,0,17.074,8.465,17.074,19.482c0,0.657,0,0.876-0.073,1.459h-30.865c0.656,9.267,7.296,14.667,14.593,14.667
			c5.764,0,9.705-2.554,12.769-5.837l2.481,2.189c-3.794,4.086-8.245,7.004-15.396,7.004
			C512.832,1088.239,504.368,1080.432,504.368,1068.829z M535.233,1067.005c-0.51-7.516-4.815-14.447-13.353-14.447
			c-7.37,0-13.061,6.202-13.717,14.447H535.233z"/>
		<path id="XMLID_21_" style="fill:#999999;" d="M568.209,1082.694l2.116-2.846c4.086,3.138,8.61,4.889,13.353,4.889
			c5.035,0,8.975-2.773,8.975-7.078v-0.145c0-4.379-4.67-5.984-9.851-7.443c-6.056-1.751-12.769-3.575-12.769-10.216v-0.145
			c0-5.984,5.035-10.289,12.258-10.289c4.451,0,9.486,1.606,13.207,4.087l-1.897,2.991c-3.429-2.262-7.516-3.721-11.456-3.721
			c-5.107,0-8.464,2.772-8.464,6.494v0.145c0,4.16,5.035,5.692,10.361,7.224c5.983,1.679,12.258,3.868,12.258,10.434v0.147
			c0,6.639-5.691,10.872-12.842,10.872C578.06,1088.093,572.15,1085.904,568.209,1082.694z"/>
		<path id="XMLID_23_" style="fill:#999999;" d="M625.631,1082.694l2.116-2.846c4.086,3.138,8.61,4.889,13.353,4.889
			c5.035,0,8.975-2.773,8.975-7.078v-0.145c0-4.379-4.67-5.984-9.851-7.443c-6.056-1.751-12.769-3.575-12.769-10.216v-0.145
			c0-5.984,5.035-10.289,12.258-10.289c4.451,0,9.486,1.606,13.207,4.087l-1.898,2.991c-3.429-2.262-7.516-3.721-11.455-3.721
			c-5.108,0-8.465,2.772-8.465,6.494v0.145c0,4.16,5.035,5.692,10.361,7.224c5.983,1.679,12.258,3.868,12.258,10.434v0.147
			c0,6.639-5.691,10.872-12.842,10.872C635.481,1088.093,629.571,1085.904,625.631,1082.694z"/>
		<path id="XMLID_25_" style="fill:#999999;" d="M732.738,1077.804v-24.37h-5.399v-3.285h5.399v-11.893h3.576v11.893h13.06v3.285
			h-13.06v24.005c0,5.327,3.138,7.224,7.443,7.224c1.824,0,3.356-0.365,5.472-1.313v3.356c-1.897,0.876-3.722,1.314-6.056,1.314
			C737.408,1088.021,732.738,1084.882,732.738,1077.804z"/>
		<path id="XMLID_27_" style="fill:#999999;" d="M778.775,1076.565v-0.145c0-7.735,6.641-12.113,16.273-12.113
			c5.18,0,8.755,0.657,12.331,1.605v-1.605c0-7.516-4.597-11.383-12.258-11.383c-4.524,0-8.245,1.241-11.675,2.991l-1.312-3.136
			c4.086-1.898,8.099-3.211,13.206-3.211c5.035,0,9.049,1.387,11.748,4.086c2.481,2.481,3.795,5.911,3.795,10.507v23.204h-3.503
			v-6.202c-2.554,3.575-7.151,7.077-14.229,7.077C786.218,1088.239,778.775,1084.298,778.775,1076.565z M807.451,1073.427v-4.232
			c-3.138-0.802-7.296-1.677-12.623-1.677c-7.88,0-12.258,3.501-12.258,8.683v0.145c0,5.4,5.107,8.537,10.799,8.537
			C800.958,1084.882,807.451,1080.213,807.451,1073.427z"/>
		<path id="XMLID_30_" style="fill:#999999;" d="M844.879,1093.493l2.116-2.918c4.45,3.429,9.558,5.254,15.031,5.254
			c8.536,0,14.592-4.889,14.592-14.448v-5.399c-3.211,4.597-8.173,8.61-15.542,8.61c-8.975,0-17.877-6.859-17.877-17.511v-0.147
			c0-10.726,8.902-17.658,17.877-17.658c7.443,0,12.478,3.94,15.542,8.318v-7.443h3.575v31.449c0,5.399-1.751,9.632-4.742,12.623
			c-3.211,3.211-8.026,4.962-13.499,4.962C855.75,1099.184,849.986,1097.287,844.879,1093.493z M876.838,1067.005v-0.145
			c0-8.61-7.662-14.155-15.396-14.155c-7.808,0-14.374,5.4-14.374,14.082v0.145c0,8.391,6.713,14.229,14.374,14.229
			C869.176,1081.162,876.838,1075.47,876.838,1067.005z"/>
		<path id="XMLID_33_" style="fill:#999999;" d="M916.162,1034.098h3.575v53.265h-3.575V1034.098z"/>
		<path id="XMLID_35_" style="fill:#999999;" d="M955.78,1035.558h4.45v4.888h-4.45V1035.558z M956.217,1050.15h3.575v37.214h-3.575
			V1050.15z"/>
		<path id="XMLID_38_" style="fill:#999999;" d="M995.763,1050.15h3.575v6.933c2.481-4.378,6.639-7.808,13.425-7.808
			c9.412,0,14.886,6.421,14.886,15.323v22.765h-3.575v-22.109c0-7.661-4.305-12.696-11.821-12.696
			c-7.298,0-12.915,5.546-12.915,13.28v21.525h-3.575V1050.15z"/>
		<path id="XMLID_40_" style="fill:#999999;" d="M1059.823,1068.829v-0.145c0-10.799,7.588-19.409,17.658-19.409
			c10.434,0,17.073,8.465,17.073,19.482c0,0.657,0,0.876-0.073,1.459h-30.865c0.657,9.267,7.298,14.667,14.594,14.667
			c5.764,0,9.704-2.554,12.77-5.837l2.48,2.189c-3.794,4.086-8.245,7.004-15.395,7.004
			C1068.286,1088.239,1059.823,1080.432,1059.823,1068.829z M1090.688,1067.005c-0.512-7.516-4.817-14.447-13.353-14.447
			c-7.37,0-13.062,6.202-13.719,14.447H1090.688z"/>
	</g>
</g>
</svg>
